<svg t="1668153367321" class="icon" viewBox="0 0 1024 1024" version="1.1" xmlns="http://www.w3.org/2000/svg" p-id="6492" width="200" height="200"><path d="M899.15 751.11h-86.53V395.37c0-164.35-133.7-298.05-298.05-298.05s-298.05 133.7-298.05 298.05v355.74h-86.53c-15.92 0-28.84 12.92-28.84 28.84s12.92 28.84 28.84 28.84H390c4.93 64.44 58.9 115.38 124.58 115.38s119.65-50.94 124.58-115.38h260.01c15.92 0 28.84-12.92 28.84-28.84-0.01-15.92-12.93-28.84-28.86-28.84zM514.57 866.49c-33.84 0-61.93-25.13-66.63-57.69h133.25c-4.69 32.56-32.78 57.69-66.62 57.69z m240.36-115.38H274.2V395.37C274.2 262.83 382.03 155 514.57 155s240.37 107.83 240.37 240.37v355.74z" fill="currentColor" p-id="6493"></path></svg>